<mxfile host="app.diagrams.net" modified="2023-10-03T16:21:34.582Z" agent="Mozilla/5.0 (Windows NT 10.0; Win64; x64) AppleWebKit/537.36 (KHTML, like Gecko) Chrome/117.0.0.0 Safari/537.36 Edg/117.0.2045.47" etag="-MM1ZwR7bKrP1FjKXYly" version="22.0.2" type="device" pages="3">
  <diagram name="Page-1" id="ywCgrUsII-7Q4hG79HE-">
    <mxGraphModel dx="1297" dy="724" grid="1" gridSize="10" guides="1" tooltips="1" connect="1" arrows="1" fold="1" page="1" pageScale="1" pageWidth="850" pageHeight="1100" math="0" shadow="0">
      <root>
        <mxCell id="0" />
        <mxCell id="1" parent="0" />
        <mxCell id="EmG5-bDzuLiheHzMDkET-16" style="edgeStyle=orthogonalEdgeStyle;rounded=0;orthogonalLoop=1;jettySize=auto;html=1;entryX=0.5;entryY=0;entryDx=0;entryDy=0;" edge="1" parent="1" source="EmG5-bDzuLiheHzMDkET-1" target="EmG5-bDzuLiheHzMDkET-2">
          <mxGeometry relative="1" as="geometry" />
        </mxCell>
        <mxCell id="EmG5-bDzuLiheHzMDkET-18" style="edgeStyle=orthogonalEdgeStyle;rounded=0;orthogonalLoop=1;jettySize=auto;html=1;entryX=0.5;entryY=0;entryDx=0;entryDy=0;" edge="1" parent="1" source="EmG5-bDzuLiheHzMDkET-1" target="EmG5-bDzuLiheHzMDkET-3">
          <mxGeometry relative="1" as="geometry" />
        </mxCell>
        <mxCell id="EmG5-bDzuLiheHzMDkET-1" value="Server" style="rounded=0;whiteSpace=wrap;html=1;" vertex="1" parent="1">
          <mxGeometry x="370" y="90" width="120" height="60" as="geometry" />
        </mxCell>
        <mxCell id="EmG5-bDzuLiheHzMDkET-2" value="Room" style="rounded=0;whiteSpace=wrap;html=1;" vertex="1" parent="1">
          <mxGeometry x="160" y="210" width="120" height="60" as="geometry" />
        </mxCell>
        <mxCell id="EmG5-bDzuLiheHzMDkET-9" style="edgeStyle=orthogonalEdgeStyle;rounded=0;orthogonalLoop=1;jettySize=auto;html=1;entryX=0.5;entryY=0;entryDx=0;entryDy=0;" edge="1" parent="1" source="EmG5-bDzuLiheHzMDkET-3" target="EmG5-bDzuLiheHzMDkET-6">
          <mxGeometry relative="1" as="geometry">
            <Array as="points">
              <mxPoint x="430" y="290" />
              <mxPoint x="220" y="290" />
            </Array>
          </mxGeometry>
        </mxCell>
        <mxCell id="EmG5-bDzuLiheHzMDkET-10" style="edgeStyle=orthogonalEdgeStyle;rounded=0;orthogonalLoop=1;jettySize=auto;html=1;entryX=0.5;entryY=0;entryDx=0;entryDy=0;" edge="1" parent="1" source="EmG5-bDzuLiheHzMDkET-3" target="EmG5-bDzuLiheHzMDkET-8">
          <mxGeometry relative="1" as="geometry" />
        </mxCell>
        <mxCell id="EmG5-bDzuLiheHzMDkET-11" style="edgeStyle=orthogonalEdgeStyle;rounded=0;orthogonalLoop=1;jettySize=auto;html=1;entryX=0.5;entryY=0;entryDx=0;entryDy=0;" edge="1" parent="1" source="EmG5-bDzuLiheHzMDkET-3" target="EmG5-bDzuLiheHzMDkET-7">
          <mxGeometry relative="1" as="geometry">
            <Array as="points">
              <mxPoint x="430" y="290" />
              <mxPoint x="660" y="290" />
            </Array>
          </mxGeometry>
        </mxCell>
        <mxCell id="EmG5-bDzuLiheHzMDkET-3" value="Room" style="rounded=0;whiteSpace=wrap;html=1;" vertex="1" parent="1">
          <mxGeometry x="370" y="210" width="120" height="60" as="geometry" />
        </mxCell>
        <mxCell id="EmG5-bDzuLiheHzMDkET-4" value="Room" style="rounded=0;whiteSpace=wrap;html=1;" vertex="1" parent="1">
          <mxGeometry x="600" y="210" width="120" height="60" as="geometry" />
        </mxCell>
        <mxCell id="EmG5-bDzuLiheHzMDkET-13" style="edgeStyle=orthogonalEdgeStyle;rounded=0;orthogonalLoop=1;jettySize=auto;html=1;entryX=0;entryY=0.75;entryDx=0;entryDy=0;" edge="1" parent="1" source="EmG5-bDzuLiheHzMDkET-6" target="EmG5-bDzuLiheHzMDkET-12">
          <mxGeometry relative="1" as="geometry">
            <Array as="points">
              <mxPoint x="220" y="550" />
              <mxPoint x="370" y="550" />
            </Array>
          </mxGeometry>
        </mxCell>
        <mxCell id="EmG5-bDzuLiheHzMDkET-6" value="Members" style="rounded=0;whiteSpace=wrap;html=1;" vertex="1" parent="1">
          <mxGeometry x="160" y="350" width="120" height="60" as="geometry" />
        </mxCell>
        <mxCell id="EmG5-bDzuLiheHzMDkET-7" value="Members" style="rounded=0;whiteSpace=wrap;html=1;" vertex="1" parent="1">
          <mxGeometry x="600" y="350" width="120" height="60" as="geometry" />
        </mxCell>
        <mxCell id="EmG5-bDzuLiheHzMDkET-8" value="Members" style="rounded=0;whiteSpace=wrap;html=1;" vertex="1" parent="1">
          <mxGeometry x="370" y="350" width="120" height="60" as="geometry" />
        </mxCell>
        <mxCell id="EmG5-bDzuLiheHzMDkET-14" style="edgeStyle=orthogonalEdgeStyle;rounded=0;orthogonalLoop=1;jettySize=auto;html=1;entryX=0.5;entryY=1;entryDx=0;entryDy=0;" edge="1" parent="1" source="EmG5-bDzuLiheHzMDkET-12" target="EmG5-bDzuLiheHzMDkET-8">
          <mxGeometry relative="1" as="geometry" />
        </mxCell>
        <mxCell id="EmG5-bDzuLiheHzMDkET-15" style="edgeStyle=orthogonalEdgeStyle;rounded=0;orthogonalLoop=1;jettySize=auto;html=1;entryX=0.5;entryY=1;entryDx=0;entryDy=0;" edge="1" parent="1" source="EmG5-bDzuLiheHzMDkET-12" target="EmG5-bDzuLiheHzMDkET-7">
          <mxGeometry relative="1" as="geometry" />
        </mxCell>
        <mxCell id="EmG5-bDzuLiheHzMDkET-12" value="Message" style="rounded=0;whiteSpace=wrap;html=1;fillColor=#fff2cc;strokeColor=#d6b656;" vertex="1" parent="1">
          <mxGeometry x="370" y="520" width="120" height="60" as="geometry" />
        </mxCell>
        <mxCell id="EmG5-bDzuLiheHzMDkET-17" style="edgeStyle=orthogonalEdgeStyle;rounded=0;orthogonalLoop=1;jettySize=auto;html=1;entryX=0.614;entryY=0.015;entryDx=0;entryDy=0;entryPerimeter=0;" edge="1" parent="1" source="EmG5-bDzuLiheHzMDkET-1" target="EmG5-bDzuLiheHzMDkET-4">
          <mxGeometry relative="1" as="geometry" />
        </mxCell>
      </root>
    </mxGraphModel>
  </diagram>
  <diagram id="--cORKKBdZFj7Iw0mrjR" name="Page-2">
    <mxGraphModel dx="1297" dy="724" grid="1" gridSize="10" guides="1" tooltips="1" connect="1" arrows="1" fold="1" page="1" pageScale="1" pageWidth="850" pageHeight="1100" math="0" shadow="0">
      <root>
        <mxCell id="0" />
        <mxCell id="1" parent="0" />
        <mxCell id="zBA-KfZ6MfcIvIFutCcR-10" style="edgeStyle=orthogonalEdgeStyle;rounded=0;orthogonalLoop=1;jettySize=auto;html=1;" edge="1" parent="1" source="zBA-KfZ6MfcIvIFutCcR-1" target="zBA-KfZ6MfcIvIFutCcR-2">
          <mxGeometry relative="1" as="geometry" />
        </mxCell>
        <mxCell id="zBA-KfZ6MfcIvIFutCcR-1" value="Member" style="rounded=0;whiteSpace=wrap;html=1;" vertex="1" parent="1">
          <mxGeometry x="340" y="80" width="120" height="60" as="geometry" />
        </mxCell>
        <mxCell id="zBA-KfZ6MfcIvIFutCcR-11" value="" style="edgeStyle=orthogonalEdgeStyle;rounded=0;orthogonalLoop=1;jettySize=auto;html=1;" edge="1" parent="1" source="zBA-KfZ6MfcIvIFutCcR-2" target="zBA-KfZ6MfcIvIFutCcR-4">
          <mxGeometry relative="1" as="geometry" />
        </mxCell>
        <mxCell id="zBA-KfZ6MfcIvIFutCcR-12" style="edgeStyle=orthogonalEdgeStyle;rounded=0;orthogonalLoop=1;jettySize=auto;html=1;entryX=0.5;entryY=0;entryDx=0;entryDy=0;" edge="1" parent="1" source="zBA-KfZ6MfcIvIFutCcR-2" target="zBA-KfZ6MfcIvIFutCcR-3">
          <mxGeometry relative="1" as="geometry" />
        </mxCell>
        <mxCell id="zBA-KfZ6MfcIvIFutCcR-2" value="Message" style="rounded=0;whiteSpace=wrap;html=1;" vertex="1" parent="1">
          <mxGeometry x="340" y="180" width="120" height="60" as="geometry" />
        </mxCell>
        <mxCell id="zBA-KfZ6MfcIvIFutCcR-3" value="Room messages" style="rounded=0;whiteSpace=wrap;html=1;" vertex="1" parent="1">
          <mxGeometry x="340" y="300" width="120" height="60" as="geometry" />
        </mxCell>
        <mxCell id="zBA-KfZ6MfcIvIFutCcR-9" style="edgeStyle=orthogonalEdgeStyle;rounded=0;orthogonalLoop=1;jettySize=auto;html=1;entryX=0.75;entryY=0;entryDx=0;entryDy=0;" edge="1" parent="1" source="zBA-KfZ6MfcIvIFutCcR-4" target="zBA-KfZ6MfcIvIFutCcR-6">
          <mxGeometry relative="1" as="geometry" />
        </mxCell>
        <mxCell id="zBA-KfZ6MfcIvIFutCcR-4" value="Message" style="ellipse;whiteSpace=wrap;html=1;" vertex="1" parent="1">
          <mxGeometry x="365" y="340" width="70" height="40" as="geometry" />
        </mxCell>
        <mxCell id="zBA-KfZ6MfcIvIFutCcR-5" value="Member" style="rounded=0;whiteSpace=wrap;html=1;" vertex="1" parent="1">
          <mxGeometry x="245" y="450" width="120" height="60" as="geometry" />
        </mxCell>
        <mxCell id="zBA-KfZ6MfcIvIFutCcR-6" value="Member" style="rounded=0;whiteSpace=wrap;html=1;" vertex="1" parent="1">
          <mxGeometry x="410" y="450" width="120" height="60" as="geometry" />
        </mxCell>
        <mxCell id="zBA-KfZ6MfcIvIFutCcR-8" style="edgeStyle=orthogonalEdgeStyle;rounded=0;orthogonalLoop=1;jettySize=auto;html=1;entryX=0.595;entryY=-0.069;entryDx=0;entryDy=0;entryPerimeter=0;" edge="1" parent="1" source="zBA-KfZ6MfcIvIFutCcR-4" target="zBA-KfZ6MfcIvIFutCcR-5">
          <mxGeometry relative="1" as="geometry" />
        </mxCell>
      </root>
    </mxGraphModel>
  </diagram>
  <diagram id="7rxqtBmNFk9MGb_Db0H1" name="Page-3">
    <mxGraphModel dx="1297" dy="724" grid="1" gridSize="10" guides="1" tooltips="1" connect="1" arrows="1" fold="1" page="1" pageScale="1" pageWidth="850" pageHeight="1100" math="0" shadow="0">
      <root>
        <mxCell id="0" />
        <mxCell id="1" parent="0" />
        <mxCell id="HZ_UYvaKZrr6FfHqDOBS-1" value="Memeber" style="rounded=0;whiteSpace=wrap;html=1;" vertex="1" parent="1">
          <mxGeometry x="50" y="70" width="120" height="60" as="geometry" />
        </mxCell>
        <mxCell id="HZ_UYvaKZrr6FfHqDOBS-2" value="_id" style="ellipse;whiteSpace=wrap;html=1;fillColor=#fff2cc;strokeColor=#d6b656;" vertex="1" parent="1">
          <mxGeometry x="40" y="160" width="120" height="80" as="geometry" />
        </mxCell>
        <mxCell id="HZ_UYvaKZrr6FfHqDOBS-3" value="email" style="ellipse;whiteSpace=wrap;html=1;" vertex="1" parent="1">
          <mxGeometry x="40" y="260" width="120" height="80" as="geometry" />
        </mxCell>
        <mxCell id="HZ_UYvaKZrr6FfHqDOBS-4" value="username" style="ellipse;whiteSpace=wrap;html=1;" vertex="1" parent="1">
          <mxGeometry x="40" y="360" width="120" height="80" as="geometry" />
        </mxCell>
        <mxCell id="HZ_UYvaKZrr6FfHqDOBS-5" value="password" style="ellipse;whiteSpace=wrap;html=1;" vertex="1" parent="1">
          <mxGeometry x="40" y="470" width="120" height="80" as="geometry" />
        </mxCell>
        <mxCell id="HZ_UYvaKZrr6FfHqDOBS-7" value="rooms" style="ellipse;whiteSpace=wrap;html=1;fillColor=#e1d5e7;strokeColor=#9673a6;" vertex="1" parent="1">
          <mxGeometry x="40" y="580" width="120" height="80" as="geometry" />
        </mxCell>
        <mxCell id="HZ_UYvaKZrr6FfHqDOBS-8" value="Room" style="rounded=0;whiteSpace=wrap;html=1;" vertex="1" parent="1">
          <mxGeometry x="280" y="70" width="120" height="60" as="geometry" />
        </mxCell>
        <mxCell id="HZ_UYvaKZrr6FfHqDOBS-9" value="Message" style="rounded=0;whiteSpace=wrap;html=1;" vertex="1" parent="1">
          <mxGeometry x="470" y="70" width="120" height="60" as="geometry" />
        </mxCell>
        <mxCell id="HZ_UYvaKZrr6FfHqDOBS-10" value="_id" style="ellipse;whiteSpace=wrap;html=1;fillColor=#e1d5e7;strokeColor=#9673a6;" vertex="1" parent="1">
          <mxGeometry x="280" y="160" width="120" height="80" as="geometry" />
        </mxCell>
        <mxCell id="HZ_UYvaKZrr6FfHqDOBS-11" value="name" style="ellipse;whiteSpace=wrap;html=1;" vertex="1" parent="1">
          <mxGeometry x="280" y="270" width="120" height="80" as="geometry" />
        </mxCell>
        <mxCell id="HZ_UYvaKZrr6FfHqDOBS-12" value="members" style="ellipse;whiteSpace=wrap;html=1;fillColor=#fff2cc;strokeColor=#d6b656;" vertex="1" parent="1">
          <mxGeometry x="280" y="370" width="120" height="80" as="geometry" />
        </mxCell>
        <mxCell id="HZ_UYvaKZrr6FfHqDOBS-13" value="created at" style="ellipse;whiteSpace=wrap;html=1;" vertex="1" parent="1">
          <mxGeometry x="280" y="480" width="120" height="80" as="geometry" />
        </mxCell>
        <mxCell id="HZ_UYvaKZrr6FfHqDOBS-14" value="owner" style="ellipse;whiteSpace=wrap;html=1;" vertex="1" parent="1">
          <mxGeometry x="280" y="580" width="120" height="80" as="geometry" />
        </mxCell>
        <mxCell id="HZ_UYvaKZrr6FfHqDOBS-15" value="_id" style="ellipse;whiteSpace=wrap;html=1;fillColor=#d5e8d4;strokeColor=#82b366;" vertex="1" parent="1">
          <mxGeometry x="460" y="170" width="120" height="80" as="geometry" />
        </mxCell>
        <mxCell id="HZ_UYvaKZrr6FfHqDOBS-16" value="messages" style="ellipse;whiteSpace=wrap;html=1;fillColor=#d5e8d4;strokeColor=#82b366;" vertex="1" parent="1">
          <mxGeometry x="280" y="670" width="120" height="80" as="geometry" />
        </mxCell>
        <mxCell id="HZ_UYvaKZrr6FfHqDOBS-17" value="text" style="ellipse;whiteSpace=wrap;html=1;" vertex="1" parent="1">
          <mxGeometry x="460" y="270" width="120" height="80" as="geometry" />
        </mxCell>
        <mxCell id="HZ_UYvaKZrr6FfHqDOBS-18" value="created at" style="ellipse;whiteSpace=wrap;html=1;" vertex="1" parent="1">
          <mxGeometry x="460" y="370" width="120" height="80" as="geometry" />
        </mxCell>
        <mxCell id="HZ_UYvaKZrr6FfHqDOBS-23" value="" style="verticalLabelPosition=bottom;verticalAlign=top;html=1;shape=mxgraph.basic.patternFillRect;fillStyle=diagRev;step=5;fillStrokeWidth=0.2;fillStrokeColor=#dddddd;" vertex="1" parent="1">
          <mxGeometry x="220" y="70" width="20" height="650" as="geometry" />
        </mxCell>
        <mxCell id="HZ_UYvaKZrr6FfHqDOBS-24" value="" style="verticalLabelPosition=bottom;verticalAlign=top;html=1;shape=mxgraph.basic.patternFillRect;fillStyle=diagRev;step=5;fillStrokeWidth=0.2;fillStrokeColor=#dddddd;" vertex="1" parent="1">
          <mxGeometry x="430" y="75" width="20" height="650" as="geometry" />
        </mxCell>
      </root>
    </mxGraphModel>
  </diagram>
</mxfile>
